<?xml version="1.0" encoding="UTF-8"?>
<!DOCTYPE svg PUBLIC "-//W3C//DTD SVG 1.1//EN" "http://www.w3.org/Graphics/SVG/1.1/DTD/svg11.dtd">
<svg xmlns="http://www.w3.org/2000/svg" version="1.1" width="238px" height="240px" style="shape-rendering:geometricPrecision; text-rendering:geometricPrecision; image-rendering:optimizeQuality; fill-rule:evenodd; clip-rule:evenodd" xmlns:xlink="http://www.w3.org/1999/xlink">
<g><path style="opacity:1" fill="#fefffe" d="M 20.5,-0.5 C 59.8333,-0.5 99.1667,-0.5 138.5,-0.5C 148.726,0.878639 155.559,6.54531 159,16.5C 159.5,23.8258 159.666,31.1591 159.5,38.5C 189.522,34.5224 202.522,47.5224 198.5,77.5C 206.561,77.1785 214.561,77.6785 222.5,79C 229.803,82.4347 234.803,87.9347 237.5,95.5C 237.5,137.833 237.5,180.167 237.5,222.5C 233.881,231.788 227.215,237.454 217.5,239.5C 177.833,239.5 138.167,239.5 98.5,239.5C 87.8616,238.039 81.0283,232.039 78,221.5C 77.5004,214.508 77.3337,207.508 77.5,200.5C 47.5,204.5 34.5,191.5 38.5,161.5C 32.4908,161.666 26.4908,161.499 20.5,161C 8.3225,159.321 1.3225,152.488 -0.5,140.5C -0.5,100.5 -0.5,60.5 -0.5,20.5C 1.5,8.5 8.5,1.5 20.5,-0.5 Z M 56.5,41.5 C 90.1667,41.5 123.833,41.5 157.5,41.5C 157.5,53.8333 157.5,66.1667 157.5,78.5C 136.164,78.3334 114.831,78.5 93.5,79C 85.565,82.2744 80.3983,88.1077 78,96.5C 77.5,117.497 77.3334,138.497 77.5,159.5C 65.5,159.5 53.5,159.5 41.5,159.5C 41.3333,125.165 41.5,90.8317 42,56.5C 44.3509,48.9841 49.1842,43.9841 56.5,41.5 Z M 160.5,80.5 C 172.5,80.5 184.5,80.5 196.5,80.5C 196.667,114.168 196.5,147.835 196,181.5C 194.278,189.556 189.444,194.723 181.5,197C 147.835,197.5 114.168,197.667 80.5,197.5C 80.5,185.5 80.5,173.5 80.5,161.5C 100.169,161.667 119.836,161.5 139.5,161C 151.667,159.5 158.5,152.667 160,140.5C 160.5,120.503 160.667,100.503 160.5,80.5 Z"/></g>
</svg>
